<?xml version="1.0" encoding="UTF-8" standalone="no"?>
<svg
   xmlns:dc="http://purl.org/dc/elements/1.1/"
   xmlns:cc="http://creativecommons.org/ns#"
   xmlns:rdf="http://www.w3.org/1999/02/22-rdf-syntax-ns#"
   xmlns:svg="http://www.w3.org/2000/svg"
   xmlns="http://www.w3.org/2000/svg"
   id="svg8"
   version="1.1"
   viewBox="0 0 104 25"
   height="25mm"
   width="104mm">
  <defs
     id="defs2" />
  <metadata
     id="metadata5">
    <rdf:RDF>
      <cc:Work
         rdf:about="">
        <dc:format>image/svg+xml</dc:format>
        <dc:type
           rdf:resource="http://purl.org/dc/dcmitype/StillImage" />
        <dc:title></dc:title>
      </cc:Work>
    </rdf:RDF>
  </metadata>
  <g
     transform="translate(0,-272)"
     id="layer3" />
  <g
     transform="translate(0,-272)"
     id="layer1">
    <g
       transform="matrix(0.99937334,0,0,0.97966751,-34.143607,174.78013)"
       id="text16"
       style="font-style:normal;font-variant:normal;font-weight:normal;font-stretch:normal;font-size:10.58333302px;line-height:1.25;font-family:baloo;-inkscape-font-specification:baloo;letter-spacing:0px;word-spacing:0px;fill:#1ca086;fill-opacity:1;stroke:none;stroke-width:0.26458332"
       aria-label="Staggered">
      <path
         id="path4542"
         style="font-size:22.57777786px;fill:#1ca086;stroke-width:0.26458332;fill-opacity:1"
         d="m 38.612839,107.86233 q -0.993422,-0.33867 -1.806222,-0.67733 -0.8128,-0.36125 -1.399822,-0.85796 -0.587023,-0.49671 -0.925689,-1.17404 -0.316089,-0.69992 -0.316089,-1.69334 0,-1.91911 1.467555,-3.07058 1.490134,-1.151462 4.154311,-1.151462 0.970845,0 1.806223,0.135467 0.835377,0.135466 1.4224,0.428977 0.6096,0.270938 0.948266,0.722488 0.338667,0.42898 0.338667,1.016 0,0.58702 -0.270933,1.016 -0.270934,0.4064 -0.654756,0.69991 -0.496711,-0.31609 -1.332089,-0.54186 -0.835378,-0.24836 -1.8288,-0.24836 -1.016,0 -1.490133,0.29351 -0.474133,0.27093 -0.474133,0.69991 0,0.33867 0.293511,0.56445 0.293511,0.2032 0.880533,0.38382 l 1.196622,0.38382 q 2.122311,0.67733 3.2512,1.73849 1.151467,1.03858 1.151467,2.8448 0,1.91911 -1.512711,3.11573 -1.512711,1.17405 -4.447822,1.17405 -1.038578,0 -1.941689,-0.18062 -0.880534,-0.15805 -1.557867,-0.47414 -0.654756,-0.33866 -1.038578,-0.8128 -0.361244,-0.49671 -0.361244,-1.12889 0,-0.65475 0.383822,-1.10631 0.383822,-0.47413 0.835378,-0.72249 0.632178,0.49671 1.535289,0.85796 0.925689,0.36124 2.009422,0.36124 1.106311,0 1.557867,-0.33866 0.451555,-0.33867 0.451555,-0.79023 0,-0.45155 -0.361244,-0.67733 -0.361245,-0.24835 -1.016,-0.47413 z" />
      <path
         id="path4544"
         style="font-size:22.57777786px;fill:#1ca086;stroke-width:0.26458332;fill-opacity:1"
         d="m 50.70959,109.53308 q 0,0.58703 0.361244,0.83538 0.383822,0.24836 1.061156,0.24836 0.338666,0 0.699911,-0.0452 0.361244,-0.0677 0.632177,-0.15804 0.2032,0.24835 0.338667,0.56444 0.158045,0.29351 0.158045,0.72249 0,0.85796 -0.654756,1.39982 -0.632178,0.54187 -2.257778,0.54187 -1.986844,0 -3.070578,-0.90311 -1.061155,-0.90311 -1.061155,-2.93511 v -9.66329 q 0.248355,-0.0677 0.699911,-0.13547 0.474133,-0.09031 0.993422,-0.09031 0.993422,0 1.535289,0.36125 0.564445,0.33866 0.564445,1.46755 v 1.44498 h 2.957688 q 0.135467,0.24835 0.248356,0.63218 0.135467,0.36124 0.135467,0.8128 0,0.79022 -0.361245,1.15146 -0.338666,0.33867 -0.925689,0.33867 H 50.70959 Z" />
      <path
         id="path4546"
         style="font-size:22.57777786px;fill:#1ca086;stroke-width:0.26458332;fill-opacity:1"
         d="m 60.607475,110.86517 q 0.383823,0 0.835378,-0.0677 0.474134,-0.0903 0.699911,-0.22578 v -1.80622 l -1.6256,0.13547 q -0.632177,0.0452 -1.038577,0.27093 -0.4064,0.22578 -0.4064,0.67733 0,0.45156 0.338666,0.74507 0.361245,0.27093 1.196622,0.27093 z m -0.180622,-8.87306 q 1.2192,0 2.212622,0.24835 1.016,0.24836 1.715912,0.76765 0.722488,0.49671 1.106311,1.28693 0.383822,0.76764 0.383822,1.8288 v 5.05742 q 0,0.58702 -0.338667,0.97085 -0.316089,0.36124 -0.767644,0.63217 -1.467556,0.88054 -4.131734,0.88054 -1.196622,0 -2.167466,-0.22578 -0.948267,-0.22578 -1.648178,-0.67733 -0.677333,-0.45156 -1.061156,-1.15147 -0.361244,-0.69991 -0.361244,-1.6256 0,-1.55787 0.925689,-2.39324 0.925689,-0.83538 2.867378,-1.03858 l 2.957689,-0.31609 v -0.15805 q 0,-0.65475 -0.587023,-0.92568 -0.564444,-0.29352 -1.648177,-0.29352 -0.857956,0 -1.670756,0.18063 -0.8128,0.18062 -1.467556,0.45155 -0.293511,-0.2032 -0.496711,-0.6096 -0.2032,-0.42898 -0.2032,-0.88053 0,-0.58702 0.270934,-0.92569 0.293511,-0.36124 0.880533,-0.6096 0.654756,-0.24836 1.535289,-0.36124 0.903111,-0.11289 1.693333,-0.11289 z" />
      <path
         id="path4548"
         style="font-size:22.57777786px;fill:#1ca086;stroke-width:0.26458332;fill-opacity:1"
         d="m 73.565356,101.99211 q 1.286934,0 2.325511,0.33866 1.061156,0.31609 1.783645,0.83538 0.451556,0.31609 0.699911,0.69991 0.270933,0.38382 0.270933,0.99342 v 7.90223 q 0,1.19662 -0.451555,2.05457 -0.451556,0.88054 -1.241778,1.44498 -0.767644,0.58702 -1.8288,0.85796 -1.038578,0.27093 -2.2352,0.27093 -2.054578,0 -3.228622,-0.56444 -1.174045,-0.54187 -1.174045,-1.78365 0,-0.51929 0.2032,-0.92569 0.225778,-0.38382 0.496711,-0.58702 0.654756,0.36125 1.467556,0.6096 0.835378,0.24836 1.715911,0.24836 1.2192,0 1.941689,-0.4064 0.722489,-0.4064 0.722489,-1.30951 v -0.36125 q -0.925689,0.4064 -2.257778,0.4064 -1.016,0 -1.941689,-0.29351 -0.903111,-0.31609 -1.603022,-0.94827 -0.677333,-0.65475 -1.106311,-1.67075 -0.4064,-1.016 -0.4064,-2.41582 0,-1.37725 0.428978,-2.39325 0.451555,-1.016 1.2192,-1.67075 0.790222,-0.67734 1.851377,-0.99343 1.083734,-0.33866 2.348089,-0.33866 z m 1.399823,3.27377 q -0.158045,-0.0903 -0.474134,-0.18062 -0.293511,-0.0903 -0.745066,-0.0903 -1.106312,0 -1.670756,0.63218 -0.541867,0.6096 -0.541867,1.76107 0,1.30951 0.541867,1.89653 0.564444,0.56444 1.4224,0.56444 0.925689,0 1.467556,-0.42897 z" />
      <path
         id="path4550"
         style="font-size:22.57777786px;opacity:0.95;fill:#1ca086;stroke-width:0.26458332;fill-opacity:1"
         d="m 86.353549,101.99211 q 1.286933,0 2.325511,0.33866 1.061156,0.31609 1.783645,0.83538 0.451555,0.31609 0.699911,0.69991 0.270933,0.38382 0.270933,0.99342 v 7.90223 q 0,1.19662 -0.451555,2.05457 -0.451556,0.88054 -1.241778,1.44498 -0.767645,0.58702 -1.8288,0.85796 -1.038578,0.27093 -2.2352,0.27093 -2.054578,0 -3.228622,-0.56444 -1.174045,-0.54187 -1.174045,-1.78365 0,-0.51929 0.2032,-0.92569 0.225778,-0.38382 0.496711,-0.58702 0.654756,0.36125 1.467556,0.6096 0.835378,0.24836 1.715911,0.24836 1.2192,0 1.941689,-0.4064 0.722489,-0.4064 0.722489,-1.30951 v -0.36125 q -0.925689,0.4064 -2.257778,0.4064 -1.016,0 -1.941689,-0.29351 -0.903111,-0.31609 -1.603022,-0.94827 -0.677334,-0.65475 -1.106311,-1.67075 -0.4064,-1.016 -0.4064,-2.41582 0,-1.37725 0.428977,-2.39325 0.451556,-1.016 1.2192,-1.67075 0.790223,-0.67734 1.851378,-0.99343 1.083734,-0.33866 2.348089,-0.33866 z m 1.399822,3.27377 q -0.158044,-0.0903 -0.474133,-0.18062 -0.293511,-0.0903 -0.745067,-0.0903 -1.106311,0 -1.670755,0.63218 -0.541867,0.6096 -0.541867,1.76107 0,1.30951 0.541867,1.89653 0.564444,0.56444 1.4224,0.56444 0.925689,0 1.467555,-0.42897 z" />
      <path
         id="path4552"
         style="font-size:22.57777786px;opacity:0.9;fill:#1ca086;stroke-width:0.26458332;fill-opacity:1"
         d="m 99.593301,116.87205 q -1.332089,0 -2.483555,-0.36125 -1.128889,-0.38382 -1.986845,-1.12889 -0.835378,-0.74506 -1.332089,-1.87395 -0.474133,-1.12889 -0.474133,-2.6416 0,-1.49013 0.474133,-2.55129 0.496711,-1.08373 1.286934,-1.76107 0.790222,-0.69991 1.806222,-1.016 1.016,-0.33866 2.077155,-0.33866 1.196627,0 2.167467,0.36124 0.99342,0.36125 1.69333,0.99342 0.72249,0.63218 1.10631,1.51271 0.4064,0.88054 0.4064,1.91912 0,0.76764 -0.42897,1.17404 -0.42898,0.4064 -1.19663,0.51929 l -5.576707,0.83538 q 0.248356,0.74506 1.016,1.12889 0.767645,0.36124 1.761067,0.36124 0.92569,0 1.73849,-0.22578 0.83538,-0.24835 1.35467,-0.56444 0.36124,0.22578 0.6096,0.63218 0.24835,0.4064 0.24835,0.85795 0,1.016 -0.94827,1.51271 -0.72248,0.38382 -1.6256,0.51929 -0.90311,0.13547 -1.693329,0.13547 z m -0.632178,-8.87307 q -0.541866,0 -0.948266,0.18062 -0.383822,0.18063 -0.632178,0.47414 -0.248356,0.27093 -0.383822,0.63217 -0.112889,0.33867 -0.135467,0.69992 l 3.8608,-0.63218 q -0.0677,-0.45156 -0.49671,-0.90311 -0.428979,-0.45156 -1.264357,-0.45156 z" />
      <path
         id="path4554"
         style="font-size:22.57777786px;opacity:0.81999966;fill:#1ca086;stroke-width:0.26458332;fill-opacity:1"
         d="m 110.02036,118.09185 q -0.22578,0.0677 -0.72249,0.13546 -0.47413,0.0677 -0.99342,0.0677 -0.49671,0 -0.90311,-0.0677 -0.38383,-0.0677 -0.65476,-0.27093 -0.27093,-0.2032 -0.42898,-0.54187 -0.13546,-0.36124 -0.13546,-0.92569 v -6.77333 q 0,-0.51929 0.18062,-0.88053 0.2032,-0.38383 0.56444,-0.67734 0.36125,-0.29351 0.88054,-0.51929 0.54186,-0.24835 1.15146,-0.42897 0.6096,-0.18063 1.26436,-0.27094 0.65475,-0.11289 1.30951,-0.11289 1.08373,0 1.71591,0.42898 0.63218,0.4064 0.63218,1.35467 0,0.31609 -0.0903,0.63218 -0.0903,0.29351 -0.22578,0.54186 -0.47413,0 -0.97085,0.0452 -0.49671,0.0452 -0.97084,0.13547 -0.47413,0.0903 -0.90311,0.2032 -0.4064,0.0903 -0.69991,0.22577 z" />
      <path
         id="path4556"
         style="font-size:22.57777786px;opacity:0.73000004;fill:#1ca086;stroke-width:0.26458332;fill-opacity:1"
         d="m 120.80407,121.01473 q -1.33209,0 -2.48356,-0.36125 -1.12889,-0.38382 -1.98684,-1.12889 -0.83538,-0.74506 -1.33209,-1.87395 -0.47414,-1.12889 -0.47414,-2.6416 0,-1.49013 0.47414,-2.55129 0.49671,-1.08373 1.28693,-1.76107 0.79022,-0.69991 1.80622,-1.016 1.016,-0.33866 2.07716,-0.33866 1.19662,0 2.16747,0.36124 0.99342,0.36125 1.69333,0.99342 0.72249,0.63218 1.10631,1.51271 0.4064,0.88054 0.4064,1.91912 0,0.76764 -0.42898,1.17404 -0.42898,0.4064 -1.19662,0.51929 l -5.57671,0.83538 q 0.24835,0.74506 1.016,1.12889 0.76764,0.36124 1.76107,0.36124 0.92568,0 1.73848,-0.22578 0.83538,-0.24835 1.35467,-0.56444 0.36125,0.22578 0.6096,0.63218 0.24836,0.4064 0.24836,0.85795 0,1.016 -0.94827,1.51271 -0.72249,0.38382 -1.6256,0.51929 -0.90311,0.13547 -1.69333,0.13547 z m -0.63218,-8.87307 q -0.54187,0 -0.94827,0.18062 -0.38382,0.18063 -0.63218,0.47414 -0.24835,0.27093 -0.38382,0.63217 -0.11289,0.33867 -0.13546,0.69992 l 3.8608,-0.63218 q -0.0677,-0.45156 -0.49672,-0.90311 -0.42897,-0.45156 -1.26435,-0.45156 z" />
      <path
         id="path4558"
         style="font-size:22.57777786px;opacity:0.6;fill:#1ca086;stroke-width:0.26458332;fill-opacity:1"
         d="m 126.91876,118.90886 q 0,-1.49013 0.45156,-2.57386 0.45156,-1.10631 1.24178,-1.8288 0.8128,-0.72249 1.87395,-1.06116 1.08374,-0.36124 2.32551,-0.36124 0.45156,0 0.88054,0.0903 0.42898,0.0677 0.69991,0.18062 v -3.6576 q 0.22578,-0.0677 0.72249,-0.13547 0.49671,-0.0903 1.016,-0.0903 0.49671,0 0.88053,0.0677 0.4064,0.0677 0.67733,0.27093 0.27094,0.2032 0.4064,0.56445 0.13547,0.33866 0.13547,0.90311 v 10.70187 q 0,1.06116 -0.99342,1.69333 -0.65476,0.42898 -1.69333,0.74507 -1.03858,0.33867 -2.39325,0.33867 -1.46755,0 -2.6416,-0.4064 -1.15147,-0.4064 -1.96427,-1.17405 -0.79022,-0.76764 -1.2192,-1.8288 -0.4064,-1.08373 -0.4064,-2.4384 z m 6.41209,-2.82222 q -1.2192,0 -1.87395,0.69991 -0.65476,0.69991 -0.65476,2.12231 0,1.39983 0.6096,2.12231 0.6096,0.69992 1.76107,0.69992 0.4064,0 0.72249,-0.11289 0.33866,-0.13547 0.51929,-0.29351 v -4.96712 q -0.45156,-0.27093 -1.08374,-0.27093 z" />
    </g>
  </g>
</svg>
